<mxfile host="app.diagrams.net" agent="Mozilla/5.0 (Windows NT 10.0; Win64; x64) AppleWebKit/537.36 (KHTML, like Gecko) Chrome/137.0.0.0 Safari/537.36" version="27.1.6">
  <diagram name="Pagina-1" id="4bg-ecfuVd_kB3SdJ_K3">
    <mxGraphModel dx="1426" dy="785" grid="1" gridSize="10" guides="1" tooltips="1" connect="1" arrows="1" fold="1" page="1" pageScale="1" pageWidth="827" pageHeight="1169" math="0" shadow="0">
      <root>
        <mxCell id="0" />
        <mxCell id="1" parent="0" />
        <mxCell id="jI7Z4ca4Hdu-OoR3Gzju-15" style="edgeStyle=orthogonalEdgeStyle;rounded=0;orthogonalLoop=1;jettySize=auto;html=1;exitX=0.5;exitY=1;exitDx=0;exitDy=0;entryX=0.5;entryY=0;entryDx=0;entryDy=0;" edge="1" parent="1" source="jI7Z4ca4Hdu-OoR3Gzju-1" target="jI7Z4ca4Hdu-OoR3Gzju-5">
          <mxGeometry relative="1" as="geometry" />
        </mxCell>
        <mxCell id="jI7Z4ca4Hdu-OoR3Gzju-1" value="Start" style="ellipse;whiteSpace=wrap;html=1;" vertex="1" parent="1">
          <mxGeometry x="240" y="40" width="120" height="80" as="geometry" />
        </mxCell>
        <mxCell id="jI7Z4ca4Hdu-OoR3Gzju-17" style="edgeStyle=orthogonalEdgeStyle;rounded=0;orthogonalLoop=1;jettySize=auto;html=1;exitX=0.5;exitY=1;exitDx=0;exitDy=0;entryX=0.5;entryY=0;entryDx=0;entryDy=0;" edge="1" parent="1" source="jI7Z4ca4Hdu-OoR3Gzju-2" target="jI7Z4ca4Hdu-OoR3Gzju-3">
          <mxGeometry relative="1" as="geometry" />
        </mxCell>
        <mxCell id="jI7Z4ca4Hdu-OoR3Gzju-2" value="Connect to drone Access Point" style="rounded=0;whiteSpace=wrap;html=1;" vertex="1" parent="1">
          <mxGeometry x="240" y="280" width="120" height="60" as="geometry" />
        </mxCell>
        <mxCell id="jI7Z4ca4Hdu-OoR3Gzju-18" style="edgeStyle=orthogonalEdgeStyle;rounded=0;orthogonalLoop=1;jettySize=auto;html=1;exitX=1;exitY=0.5;exitDx=0;exitDy=0;entryX=0;entryY=0.5;entryDx=0;entryDy=0;" edge="1" parent="1" source="jI7Z4ca4Hdu-OoR3Gzju-3" target="jI7Z4ca4Hdu-OoR3Gzju-4">
          <mxGeometry relative="1" as="geometry" />
        </mxCell>
        <mxCell id="jI7Z4ca4Hdu-OoR3Gzju-38" value="No" style="edgeLabel;html=1;align=center;verticalAlign=middle;resizable=0;points=[];" vertex="1" connectable="0" parent="jI7Z4ca4Hdu-OoR3Gzju-18">
          <mxGeometry x="-0.1667" relative="1" as="geometry">
            <mxPoint as="offset" />
          </mxGeometry>
        </mxCell>
        <mxCell id="jI7Z4ca4Hdu-OoR3Gzju-19" style="edgeStyle=orthogonalEdgeStyle;rounded=0;orthogonalLoop=1;jettySize=auto;html=1;exitX=0.5;exitY=1;exitDx=0;exitDy=0;entryX=0.5;entryY=0;entryDx=0;entryDy=0;" edge="1" parent="1" source="jI7Z4ca4Hdu-OoR3Gzju-3" target="jI7Z4ca4Hdu-OoR3Gzju-6">
          <mxGeometry relative="1" as="geometry" />
        </mxCell>
        <mxCell id="jI7Z4ca4Hdu-OoR3Gzju-39" value="Yes" style="edgeLabel;html=1;align=center;verticalAlign=middle;resizable=0;points=[];" vertex="1" connectable="0" parent="jI7Z4ca4Hdu-OoR3Gzju-19">
          <mxGeometry x="-0.25" relative="1" as="geometry">
            <mxPoint as="offset" />
          </mxGeometry>
        </mxCell>
        <mxCell id="jI7Z4ca4Hdu-OoR3Gzju-3" value="Connected?" style="rhombus;whiteSpace=wrap;html=1;" vertex="1" parent="1">
          <mxGeometry x="260" y="380" width="80" height="80" as="geometry" />
        </mxCell>
        <mxCell id="jI7Z4ca4Hdu-OoR3Gzju-4" value="Print &quot;Connecting...&quot;" style="rounded=0;whiteSpace=wrap;html=1;" vertex="1" parent="1">
          <mxGeometry x="400" y="390" width="120" height="60" as="geometry" />
        </mxCell>
        <mxCell id="jI7Z4ca4Hdu-OoR3Gzju-16" style="edgeStyle=orthogonalEdgeStyle;rounded=0;orthogonalLoop=1;jettySize=auto;html=1;exitX=0.5;exitY=1;exitDx=0;exitDy=0;entryX=0.5;entryY=0;entryDx=0;entryDy=0;" edge="1" parent="1" source="jI7Z4ca4Hdu-OoR3Gzju-5" target="jI7Z4ca4Hdu-OoR3Gzju-2">
          <mxGeometry relative="1" as="geometry" />
        </mxCell>
        <mxCell id="jI7Z4ca4Hdu-OoR3Gzju-5" value="Setup button interrupt" style="rounded=0;whiteSpace=wrap;html=1;" vertex="1" parent="1">
          <mxGeometry x="240" y="160" width="120" height="60" as="geometry" />
        </mxCell>
        <mxCell id="jI7Z4ca4Hdu-OoR3Gzju-20" style="edgeStyle=orthogonalEdgeStyle;rounded=0;orthogonalLoop=1;jettySize=auto;html=1;exitX=0.5;exitY=1;exitDx=0;exitDy=0;entryX=0.5;entryY=0;entryDx=0;entryDy=0;" edge="1" parent="1" source="jI7Z4ca4Hdu-OoR3Gzju-6" target="jI7Z4ca4Hdu-OoR3Gzju-7">
          <mxGeometry relative="1" as="geometry" />
        </mxCell>
        <mxCell id="jI7Z4ca4Hdu-OoR3Gzju-6" value="Start UDP" style="rounded=0;whiteSpace=wrap;html=1;" vertex="1" parent="1">
          <mxGeometry x="240" y="500" width="120" height="60" as="geometry" />
        </mxCell>
        <mxCell id="jI7Z4ca4Hdu-OoR3Gzju-26" style="edgeStyle=orthogonalEdgeStyle;rounded=0;orthogonalLoop=1;jettySize=auto;html=1;exitX=0;exitY=0.5;exitDx=0;exitDy=0;entryX=0.5;entryY=0;entryDx=0;entryDy=0;" edge="1" parent="1" source="jI7Z4ca4Hdu-OoR3Gzju-7" target="jI7Z4ca4Hdu-OoR3Gzju-8">
          <mxGeometry relative="1" as="geometry" />
        </mxCell>
        <mxCell id="jI7Z4ca4Hdu-OoR3Gzju-36" value="Yes" style="edgeLabel;html=1;align=center;verticalAlign=middle;resizable=0;points=[];" vertex="1" connectable="0" parent="jI7Z4ca4Hdu-OoR3Gzju-26">
          <mxGeometry x="-0.5625" relative="1" as="geometry">
            <mxPoint as="offset" />
          </mxGeometry>
        </mxCell>
        <mxCell id="jI7Z4ca4Hdu-OoR3Gzju-27" style="edgeStyle=orthogonalEdgeStyle;rounded=0;orthogonalLoop=1;jettySize=auto;html=1;exitX=1;exitY=0.5;exitDx=0;exitDy=0;entryX=0.5;entryY=0;entryDx=0;entryDy=0;" edge="1" parent="1" source="jI7Z4ca4Hdu-OoR3Gzju-7" target="jI7Z4ca4Hdu-OoR3Gzju-11">
          <mxGeometry relative="1" as="geometry" />
        </mxCell>
        <mxCell id="jI7Z4ca4Hdu-OoR3Gzju-37" value="No" style="edgeLabel;html=1;align=center;verticalAlign=middle;resizable=0;points=[];" vertex="1" connectable="0" parent="jI7Z4ca4Hdu-OoR3Gzju-27">
          <mxGeometry x="-0.5625" relative="1" as="geometry">
            <mxPoint as="offset" />
          </mxGeometry>
        </mxCell>
        <mxCell id="jI7Z4ca4Hdu-OoR3Gzju-7" value="Emergency button pressed?" style="rhombus;whiteSpace=wrap;html=1;" vertex="1" parent="1">
          <mxGeometry x="260" y="600" width="80" height="80" as="geometry" />
        </mxCell>
        <mxCell id="jI7Z4ca4Hdu-OoR3Gzju-28" style="edgeStyle=orthogonalEdgeStyle;rounded=0;orthogonalLoop=1;jettySize=auto;html=1;exitX=0.5;exitY=1;exitDx=0;exitDy=0;entryX=0.5;entryY=0;entryDx=0;entryDy=0;" edge="1" parent="1" source="jI7Z4ca4Hdu-OoR3Gzju-8" target="jI7Z4ca4Hdu-OoR3Gzju-9">
          <mxGeometry relative="1" as="geometry" />
        </mxCell>
        <mxCell id="jI7Z4ca4Hdu-OoR3Gzju-8" value="Send EMERGENCY_STOP packet to drone" style="rounded=0;whiteSpace=wrap;html=1;" vertex="1" parent="1">
          <mxGeometry x="120" y="720" width="120" height="60" as="geometry" />
        </mxCell>
        <mxCell id="jI7Z4ca4Hdu-OoR3Gzju-29" style="edgeStyle=orthogonalEdgeStyle;rounded=0;orthogonalLoop=1;jettySize=auto;html=1;exitX=0.5;exitY=1;exitDx=0;exitDy=0;entryX=0.5;entryY=0;entryDx=0;entryDy=0;" edge="1" parent="1" source="jI7Z4ca4Hdu-OoR3Gzju-9" target="jI7Z4ca4Hdu-OoR3Gzju-10">
          <mxGeometry relative="1" as="geometry" />
        </mxCell>
        <mxCell id="jI7Z4ca4Hdu-OoR3Gzju-9" value="Print &quot;Emergency Stop Triggered!&quot; on LCD" style="rounded=0;whiteSpace=wrap;html=1;" vertex="1" parent="1">
          <mxGeometry x="120" y="820" width="120" height="60" as="geometry" />
        </mxCell>
        <mxCell id="jI7Z4ca4Hdu-OoR3Gzju-35" style="edgeStyle=orthogonalEdgeStyle;rounded=0;orthogonalLoop=1;jettySize=auto;html=1;exitX=0.5;exitY=1;exitDx=0;exitDy=0;entryX=0.5;entryY=0;entryDx=0;entryDy=0;" edge="1" parent="1" source="jI7Z4ca4Hdu-OoR3Gzju-10" target="jI7Z4ca4Hdu-OoR3Gzju-34">
          <mxGeometry relative="1" as="geometry" />
        </mxCell>
        <mxCell id="jI7Z4ca4Hdu-OoR3Gzju-10" value="Print &quot;Emergency Stop Triggered!&quot; on LCD" style="rounded=0;whiteSpace=wrap;html=1;" vertex="1" parent="1">
          <mxGeometry x="120" y="920" width="120" height="60" as="geometry" />
        </mxCell>
        <mxCell id="jI7Z4ca4Hdu-OoR3Gzju-30" style="edgeStyle=orthogonalEdgeStyle;rounded=0;orthogonalLoop=1;jettySize=auto;html=1;exitX=0.5;exitY=1;exitDx=0;exitDy=0;entryX=0.5;entryY=0;entryDx=0;entryDy=0;" edge="1" parent="1" source="jI7Z4ca4Hdu-OoR3Gzju-11" target="jI7Z4ca4Hdu-OoR3Gzju-12">
          <mxGeometry relative="1" as="geometry" />
        </mxCell>
        <mxCell id="jI7Z4ca4Hdu-OoR3Gzju-11" value="Listen for incoming UDP packet from drone" style="rounded=0;whiteSpace=wrap;html=1;" vertex="1" parent="1">
          <mxGeometry x="360" y="720" width="120" height="60" as="geometry" />
        </mxCell>
        <mxCell id="jI7Z4ca4Hdu-OoR3Gzju-31" style="edgeStyle=orthogonalEdgeStyle;rounded=0;orthogonalLoop=1;jettySize=auto;html=1;exitX=0.5;exitY=1;exitDx=0;exitDy=0;entryX=0.5;entryY=0;entryDx=0;entryDy=0;" edge="1" parent="1" source="jI7Z4ca4Hdu-OoR3Gzju-12" target="jI7Z4ca4Hdu-OoR3Gzju-13">
          <mxGeometry relative="1" as="geometry" />
        </mxCell>
        <mxCell id="jI7Z4ca4Hdu-OoR3Gzju-40" value="Yes" style="edgeLabel;html=1;align=center;verticalAlign=middle;resizable=0;points=[];" vertex="1" connectable="0" parent="jI7Z4ca4Hdu-OoR3Gzju-31">
          <mxGeometry x="-0.2" relative="1" as="geometry">
            <mxPoint x="-1" as="offset" />
          </mxGeometry>
        </mxCell>
        <mxCell id="jI7Z4ca4Hdu-OoR3Gzju-42" style="edgeStyle=orthogonalEdgeStyle;rounded=0;orthogonalLoop=1;jettySize=auto;html=1;exitX=1;exitY=0.5;exitDx=0;exitDy=0;entryX=1;entryY=0.75;entryDx=0;entryDy=0;" edge="1" parent="1" source="jI7Z4ca4Hdu-OoR3Gzju-12" target="jI7Z4ca4Hdu-OoR3Gzju-11">
          <mxGeometry relative="1" as="geometry">
            <Array as="points">
              <mxPoint x="500" y="850" />
              <mxPoint x="500" y="765" />
            </Array>
          </mxGeometry>
        </mxCell>
        <mxCell id="jI7Z4ca4Hdu-OoR3Gzju-44" value="No" style="edgeLabel;html=1;align=center;verticalAlign=middle;resizable=0;points=[];" vertex="1" connectable="0" parent="jI7Z4ca4Hdu-OoR3Gzju-42">
          <mxGeometry x="-0.7379" relative="1" as="geometry">
            <mxPoint x="-1" y="-1" as="offset" />
          </mxGeometry>
        </mxCell>
        <mxCell id="jI7Z4ca4Hdu-OoR3Gzju-12" value="Incoming telemetry data?" style="rhombus;whiteSpace=wrap;html=1;" vertex="1" parent="1">
          <mxGeometry x="380" y="810" width="80" height="80" as="geometry" />
        </mxCell>
        <mxCell id="jI7Z4ca4Hdu-OoR3Gzju-32" style="edgeStyle=orthogonalEdgeStyle;rounded=0;orthogonalLoop=1;jettySize=auto;html=1;exitX=0.5;exitY=1;exitDx=0;exitDy=0;entryX=0.5;entryY=0;entryDx=0;entryDy=0;" edge="1" parent="1" source="jI7Z4ca4Hdu-OoR3Gzju-13" target="jI7Z4ca4Hdu-OoR3Gzju-14">
          <mxGeometry relative="1" as="geometry" />
        </mxCell>
        <mxCell id="jI7Z4ca4Hdu-OoR3Gzju-13" value="Parse pitch and roll data" style="rounded=0;whiteSpace=wrap;html=1;" vertex="1" parent="1">
          <mxGeometry x="360" y="920" width="120" height="60" as="geometry" />
        </mxCell>
        <mxCell id="jI7Z4ca4Hdu-OoR3Gzju-43" style="edgeStyle=orthogonalEdgeStyle;rounded=0;orthogonalLoop=1;jettySize=auto;html=1;exitX=1;exitY=0.5;exitDx=0;exitDy=0;entryX=1;entryY=0.5;entryDx=0;entryDy=0;" edge="1" parent="1" source="jI7Z4ca4Hdu-OoR3Gzju-14" target="jI7Z4ca4Hdu-OoR3Gzju-11">
          <mxGeometry relative="1" as="geometry">
            <Array as="points">
              <mxPoint x="520" y="1050" />
              <mxPoint x="520" y="750" />
            </Array>
          </mxGeometry>
        </mxCell>
        <mxCell id="jI7Z4ca4Hdu-OoR3Gzju-14" value="Display data on LCD" style="rounded=0;whiteSpace=wrap;html=1;" vertex="1" parent="1">
          <mxGeometry x="360" y="1020" width="120" height="60" as="geometry" />
        </mxCell>
        <mxCell id="jI7Z4ca4Hdu-OoR3Gzju-34" value="End" style="ellipse;whiteSpace=wrap;html=1;" vertex="1" parent="1">
          <mxGeometry x="120" y="1020" width="120" height="80" as="geometry" />
        </mxCell>
      </root>
    </mxGraphModel>
  </diagram>
</mxfile>
